<?xml version="1.0" standalone="no"?>
<!DOCTYPE svg PUBLIC "-//W3C//DTD SVG 1.1//EN" "http://www.w3.org/Graphics/SVG/1.1/DTD/svg11.dtd" >
<svg>
<metadata>
Created by FontForge 20120731 at Wed Apr 26 09:20:43 2023
 By www
Copyright (c) 2009 by Marcus Sterz / FaceType. All rights reserved.
</metadata>
<defs>
<font id="SlugSingleW00-Regular" horiz-adv-x="200" >
  <font-face 
    font-family="SlugSingleW00-Regular"
    font-weight="400"
    font-stretch="normal"
    units-per-em="1000"
    panose-1="2 0 5 3 2 0 0 2 0 4"
    ascent="800"
    descent="-200"
    x-height="590"
    cap-height="740"
    bbox="-77 -200 1497 815"
    underline-thickness="50"
    underline-position="-125"
    unicode-range="U+0020-2122"
  />
<missing-glyph 
 />
    <glyph glyph-name=".notdef" unicode="&#x32;&#x35;" 
 />
    <glyph glyph-name="s_s.liga" unicode="ss" horiz-adv-x="800" 
d="M0 200q19 0 36.5 7.5t30.5 20.5t20.5 30t7.5 37q0 61 23 115t63 94t94 63t115 23v-200q-20 0 -37 -7.5t-30 -20.5t-20.5 -30.5t-7.5 -36.5q0 -22 8 -41t22.5 -33.5t33.5 -22.5t41 -8t41 8t33 22.5t22.5 33.5t8.5 41q0 61 23 115t63 94t94 63t115 23v-200q-20 0 -37 -7.5
t-30 -20.5t-20.5 -30.5t-7.5 -36.5q0 -63 -24 -119t-65 -97t-97 -65t-119 -24q-61 0 -114 21.5t-94 59.5q-39 -34 -88 -52.5t-104 -18.5v200z" />
    <glyph glyph-name="r_s.liga" unicode="rs" horiz-adv-x="705" 
d="M0 290q0 62 23.5 117t64 95.5t95.5 64t117 23.5v-200q-20 0 -38.5 -7.5t-32 -20.5t-21.5 -30.5t-8 -37.5q0 -22 8 -41t22.5 -33t33.5 -22t41 -8t41 8t33 22.5t22.5 33.5t8.5 41q0 61 23 115t63 94t94 63t115 23v-200q-20 0 -37 -7.5t-30 -20.5t-20.5 -30.5t-7.5 -36.5
q0 -63 -24 -119t-65 -97t-97 -65t-119 -24q-56 0 -105 17v-7h-200v290z" />
    <glyph glyph-name="y_s.liga" unicode="ys" horiz-adv-x="866" 
d="M147 208l-197 382h225l85 -165l85 165h225l-186 -361q14 -18 35.5 -28.5t46.5 -10.5q22 0 41 8t33 22.5t22.5 33.5t8.5 41q0 61 23 115t63 94t94 63t115 23v-200q-20 0 -37 -7.5t-30 -20.5t-20.5 -30.5t-7.5 -36.5q0 -63 -24 -119t-65 -97t-97 -65t-119 -24
q-50 0 -95 14.5t-82 40.5l-101 -195h-226z" />
    <glyph glyph-name=".null" horiz-adv-x="0" 
 />
    <glyph glyph-name="nonmarkingreturn" horiz-adv-x="333" 
 />
    <glyph glyph-name="space" unicode=" " 
 />
    <glyph glyph-name="exclam" unicode="!" 
d="M0 740h200v-450h-200v450zM0 200h200v-200h-200v200z" />
    <glyph glyph-name="quotedbl" unicode="&#x22;" horiz-adv-x="400" 
d="M0 740h400v-349h-400v349z" />
    <glyph glyph-name="numbersign" unicode="#" horiz-adv-x="740" 
d="M0 300h100v140h-100v200h100v100h200v-100h140v100h200v-100h100v-200h-100v-140h100v-200h-100v-100h-200v100h-140v-100h-200v100h-100v200zM440 300v140h-140v-140h140z" />
    <glyph glyph-name="dollar" unicode="$" horiz-adv-x="540" 
d="M0 200h325q14 0 24.5 10.5t10.5 24.5t-10.5 24.5t-24.5 10.5h-110q-49 0 -91.5 18.5t-74.5 50.5t-50.5 74.5t-18.5 91.5q0 42 14 80t38.5 68t58.5 51t74 30v81h200v-75h175v-200h-325q-14 0 -24.5 -10.5t-10.5 -24.5t10.5 -24.5t24.5 -10.5h110q49 0 91.5 -18.5
t74.5 -50.5t50.5 -74.5t18.5 -91.5q0 -44 -15 -83t-41 -70t-61.5 -51.5t-77.5 -27.5v-78h-200v75h-165v200z" />
    <glyph glyph-name="percent" unicode="%" horiz-adv-x="1112" 
d="M657 225q0 49 18.5 91.5t50.5 74.5t74.5 50.5t91.5 18.5t91.5 -18.5t74.5 -50.5t50.5 -74.5t18.5 -91.5t-18.5 -91.5t-50.5 -74.5t-74.5 -50.5t-91.5 -18.5q-48 0 -91 18.5t-75 50.5t-50.5 74.5t-18.5 91.5zM-15 514q0 49 18.5 91.5t50.5 74.5t74.5 50.5t91.5 18.5
t91.5 -18.5t74.5 -50.5t50.5 -74.5t18.5 -91.5t-18.5 -91.5t-50.5 -74.5t-74.5 -50.5t-91.5 -18.5q-48 0 -91 18.5t-75 50.5t-50.5 74.5t-18.5 91.5zM635 740h225l-383 -740h-224zM892 190q14 0 24.5 10.5t10.5 24.5t-10.5 24.5t-24.5 10.5t-24.5 -10.5t-10.5 -24.5
t10.5 -24.5t24.5 -10.5zM220 479q14 0 24.5 10.5t10.5 24.5t-10.5 24.5t-24.5 10.5t-24.5 -10.5t-10.5 -24.5t10.5 -24.5t24.5 -10.5z" />
    <glyph glyph-name="ampersand" unicode="&#x26;" horiz-adv-x="618" 
d="M230 0q-49 0 -91.5 18.5t-74.5 50.5t-50.5 74.5t-18.5 91.5q0 40 12.5 76t35.5 66q-18 28 -28 60.5t-10 67.5q0 49 18.5 91.5t50.5 74.5t74.5 50.5t91.5 18.5h175v-200h-175q-14 0 -24.5 -10.5t-10.5 -24.5t10.5 -24.5t24.5 -10.5h40v-200h-50q-14 0 -24.5 -10.5
t-10.5 -24.5t10.5 -24.5t24.5 -10.5h100q14 0 24.5 10.5t10.5 24.5v235h253v-200h-53v-35q0 -49 -18.5 -91.5t-50.5 -74.5t-74.5 -50.5t-91.5 -18.5h-100z" />
    <glyph glyph-name="quotesingle" unicode="'" 
d="M0 740h200v-349h-200v349z" />
    <glyph glyph-name="parenleft" unicode="(" horiz-adv-x="300" 
d="M0 440q0 62 23.5 117t64 95.5t95.5 64t117 23.5v-200q-42 0 -71 -29t-29 -71v-340q0 -42 29 -71t71 -29v-200q-62 0 -117 23.5t-95.5 64t-64 95.5t-23.5 117v340z" />
    <glyph glyph-name="parenright" unicode=")" horiz-adv-x="300" 
d="M0 0q42 0 71 29t29 71v340q0 42 -29 71t-71 29v200q62 0 117 -23.5t95.5 -64t64 -95.5t23.5 -117v-340q0 -62 -23.5 -117t-64 -95.5t-95.5 -64t-117 -23.5v200z" />
    <glyph glyph-name="asterisk" unicode="*" horiz-adv-x="470" 
d="M-10 489l45 25l-45 27l100 173l45 -26v52h200v-53l45 26l100 -173l-45 -26l45 -26l-100 -172l-45 26v-53h-200v53l-45 -26z" />
    <glyph glyph-name="plus" unicode="+" horiz-adv-x="400" 
d="M100 200h-100v200h100v100h200v-100h100v-200h-100v-100h-200v100z" />
    <glyph glyph-name="comma" unicode="," 
d="M0 200h200v-150q0 -42 -15.5 -78.5t-42.5 -63.5t-63.5 -42.5t-78.5 -15.5v350z" />
    <glyph glyph-name="hyphen" unicode="-" horiz-adv-x="300" 
d="M0 400h300v-200h-300v200z" />
    <glyph glyph-name="period" unicode="." 
d="M0 200h200v-200h-200v200z" />
    <glyph glyph-name="slash" unicode="/" horiz-adv-x="607" 
d="M382 740h225l-460 -890h-224z" />
    <glyph glyph-name="zero" unicode="0" horiz-adv-x="610" 
d="M0 445q0 63 24 119t65 97t97 65t119 24t119 -24t97 -65t65 -97t24 -119v-150q0 -63 -24 -119t-65 -97t-97 -65t-119 -24t-119 24t-97 65t-65 97t-24 119v150zM200 295q0 -22 8 -41t22.5 -33.5t33.5 -22.5t41 -8t41 8t33 22.5t22.5 33.5t8.5 41v150q0 22 -8.5 41t-22.5 33
t-33 22.5t-41 8.5t-41 -8.5t-33.5 -22.5t-22.5 -33t-8 -41v-150z" />
    <glyph glyph-name="one" unicode="1" horiz-adv-x="300" 
d="M100 540h-100v200h300v-740h-200v540z" />
    <glyph glyph-name="two" unicode="2" horiz-adv-x="560" 
d="M0 240l355 236q15 11 15 29q0 14 -10.5 24.5t-24.5 10.5h-335v200h335q49 0 91.5 -18.5t74.5 -50.5t50.5 -74.5t18.5 -91.5q0 -62 -28.5 -113t-76.5 -83l-164 -109h259v-200h-560v240z" />
    <glyph glyph-name="three" unicode="3" horiz-adv-x="535" 
d="M0 200h315q14 0 24.5 10.5t10.5 24.5t-10.5 24.5t-24.5 10.5h-233l140 270h-222v200h550l-148 -287q33 -13 60 -34.5t46.5 -50t30.5 -62.5t11 -71q0 -49 -18.5 -91.5t-50.5 -74.5t-74.5 -50.5t-91.5 -18.5h-315v200z" />
    <glyph glyph-name="four" unicode="4" horiz-adv-x="572" 
d="M291 740h224l-217 -420h274v-320h-200v120h-402z" />
    <glyph glyph-name="five" unicode="5" horiz-adv-x="520" 
d="M0 200h305q14 0 24.5 10.5t10.5 24.5t-10.5 24.5t-24.5 10.5h-305v470h520v-200h-320v-70h105q49 0 91.5 -18.5t74.5 -50.5t50.5 -74.5t18.5 -91.5t-18.5 -91.5t-50.5 -74.5t-74.5 -50.5t-91.5 -18.5h-305v200z" />
    <glyph glyph-name="six" unicode="6" horiz-adv-x="580" 
d="M-15 295q0 38 8.5 72.5t24.5 66.5l159 306h224l-74 -143q57 -7 106 -33t85 -66.5t56.5 -92.5t20.5 -110q0 -63 -24 -119t-65 -97t-97 -65t-119 -24t-119 24t-97 65t-65 97t-24 119zM185 295q0 -22 8 -41t22.5 -33.5t33.5 -22.5t41 -8t41 8t33 22.5t22.5 33.5t8.5 41
t-8.5 41t-22.5 33t-33 22.5t-41 8.5t-41 -8.5t-33.5 -22.5t-22.5 -33t-8 -41z" />
    <glyph glyph-name="seven" unicode="7" horiz-adv-x="547" 
d="M269 540h-269v200h597l-383 -740h-224z" />
    <glyph glyph-name="eight" unicode="8" horiz-adv-x="600" 
d="M230 0q-49 0 -91.5 18.5t-74.5 50.5t-50.5 74.5t-18.5 91.5q0 41 12 76.5t35 64.5q-37 57 -37 129q0 49 18.5 91.5t50.5 74.5t74.5 50.5t91.5 18.5h120q49 0 91.5 -18.5t74.5 -50.5t50.5 -74.5t18.5 -91.5q0 -74 -40 -131q23 -29 36.5 -64.5t13.5 -74.5
q0 -49 -18.5 -91.5t-50.5 -74.5t-74.5 -50.5t-91.5 -18.5h-140zM370 200q14 0 24.5 10.5t10.5 24.5t-10.5 24.5t-24.5 10.5h-140q-14 0 -24.5 -10.5t-10.5 -24.5t10.5 -24.5t24.5 -10.5h140zM360 470q14 0 24.5 10.5t10.5 24.5t-10.5 24.5t-24.5 10.5h-120
q-14 0 -24.5 -10.5t-10.5 -24.5t10.5 -24.5t24.5 -10.5h120z" />
    <glyph glyph-name="nine" unicode="9" horiz-adv-x="580" 
d="M252 142q-57 7 -105.5 33t-84.5 66.5t-56.5 92.5t-20.5 111q0 63 24 119t65 97t97 65t119 24t119 -24t97 -65t65 -97t24 -119q0 -38 -8.5 -72.5t-24.5 -66.5l-159 -306h-224zM290 340q22 0 41 8t33 22.5t22.5 33.5t8.5 41t-8.5 41t-22.5 33t-33 22.5t-41 8.5t-41 -8.5
t-33.5 -22.5t-22.5 -33t-8 -41t8 -41t22.5 -33.5t33.5 -22.5t41 -8z" />
    <glyph glyph-name="colon" unicode=":" 
d="M0 200h200v-200h-200v200zM0 490h200v-200h-200v200z" />
    <glyph glyph-name="semicolon" unicode=";" 
d="M0 200h200v-150q0 -42 -15.5 -78.5t-42.5 -63.5t-63.5 -42.5t-78.5 -15.5v350zM0 490h200v-200h-200v200z" />
    <glyph glyph-name="less" unicode="&#x3c;" horiz-adv-x="585" 
d="M585 609v-224l-165 -85l165 -85v-225l-600 310z" />
    <glyph glyph-name="equal" unicode="=" horiz-adv-x="500" 
d="M0 500h500v-400h-500v400z" />
    <glyph glyph-name="greater" unicode="&#x3e;" horiz-adv-x="585" 
d="M0 214l165 85l-165 85v225l600 -310l-600 -309v224z" />
    <glyph glyph-name="question" unicode="?" horiz-adv-x="436" 
d="M0 290q0 42 15.5 78.5t42.5 63.5t63.5 42.5t78.5 15.5h26q11 0 18 7t7 18t-7 18t-18 7h-226v200h226q46 0 87 -17.5t72 -48.5t48.5 -72t17.5 -87q0 -47 -17.5 -87.5t-48.5 -71.5t-72 -48.5t-87 -17.5h-226zM0 200h200v-200h-200v200z" />
    <glyph glyph-name="at" unicode="@" horiz-adv-x="881" 
d="M441 -161q-95 0 -178 36t-144.5 97.5t-97.5 144.5t-36 177t36 177.5t97.5 145t144.5 97.5t177 36t177.5 -36t145 -97.5t97.5 -145t36 -177.5q0 -50 -9.5 -90t-26.5 -85h-419q-36 0 -68 13.5t-56 37.5t-37.5 56t-13.5 68t13.5 68t37.5 56t56 37.5t68 13.5h183
q-35 37 -82 58.5t-101 21.5q-52 0 -98.5 -20t-81.5 -55t-55.5 -81.5t-20.5 -98.5t20 -98.5t55 -81t81.5 -54.5t99.5 -20v-201v0z" />
    <glyph glyph-name="A" unicode="A" horiz-adv-x="634" 
d="M317 760l392 -760h-784zM381 200l-64 125l-65 -125h129z" />
    <glyph glyph-name="B" unicode="B" horiz-adv-x="637" 
d="M0 740h397q49 0 91.5 -18.5t74.5 -50.5t50.5 -74.5t18.5 -91.5q0 -35 -10 -67.5t-28 -60.5q23 -30 35.5 -66t12.5 -76q0 -49 -18.5 -91.5t-50.5 -74.5t-74.5 -50.5t-91.5 -18.5h-407v740zM407 200q14 0 24.5 10.5t10.5 24.5t-10.5 24.5t-24.5 10.5h-207v-70h207zM397 470
q14 0 24.5 10.5t10.5 24.5t-10.5 24.5t-24.5 10.5h-197v-70h197z" />
    <glyph glyph-name="C" unicode="C" horiz-adv-x="494" 
d="M356 0q-77 0 -144.5 29t-117.5 79.5t-79.5 117.5t-29.5 144q0 76 29.5 143.5t79.5 118t117.5 79.5t144.5 29h138v-200h-138q-35 0 -66 -13.5t-54 -36.5t-36.5 -54t-13.5 -66t13.5 -66t36.5 -54t54 -36.5t66 -13.5h138v-200h-138v0z" />
    <glyph glyph-name="D" unicode="D" horiz-adv-x="670" 
d="M0 740h299q76 0 144 -29t118 -79.5t79.5 -118t29.5 -143.5q0 -77 -29.5 -144t-79.5 -117.5t-118 -79.5t-144 -29h-299v740zM299 200q35 0 66 13.5t54 36.5t36.5 54t13.5 66t-13.5 66t-36.5 54t-54 36.5t-66 13.5h-99v-340h99z" />
    <glyph glyph-name="E" unicode="E" horiz-adv-x="500" 
d="M0 740h500v-200h-300v-70h250v-200h-250v-70h300v-200h-500v740z" />
    <glyph glyph-name="F" unicode="F" horiz-adv-x="500" 
d="M0 740h500v-200h-300v-70h250v-200h-250v-270h-200v740z" />
    <glyph glyph-name="G" unicode="G" horiz-adv-x="660" 
d="M-15 370q0 76 29.5 143.5t79.5 118t117.5 79.5t144.5 29h304v-200h-304q-35 0 -66 -13.5t-54 -36.5t-36.5 -54t-13.5 -66t13.5 -66t36.5 -54t54 -36.5t66 -13.5h104v270h200v-470h-304q-77 0 -144.5 29t-117.5 79.5t-79.5 117.5t-29.5 144z" />
    <glyph glyph-name="H" unicode="H" horiz-adv-x="600" 
d="M0 740h200v-270h200v270h200v-740h-200v270h-200v-270h-200v740z" />
    <glyph glyph-name="I" unicode="I" 
d="M0 740h200v-740h-200v740z" />
    <glyph glyph-name="J" unicode="J" horiz-adv-x="590" 
d="M190 290q0 -42 29 -71t71 -29t71 29t29 71v250h-100v200h300v-450q0 -62 -23.5 -117t-64 -95.5t-95.5 -64t-117 -23.5t-117 23.5t-95.5 64t-64 95.5t-23.5 117h200z" />
    <glyph glyph-name="K" unicode="K" horiz-adv-x="604" 
d="M0 740h200v-442l228 442h226l-192 -370l192 -370h-225l-79 153l-79 -153h-271v740z" />
    <glyph glyph-name="L" unicode="L" horiz-adv-x="500" 
d="M0 740h200v-540h300v-200h-500v740z" />
    <glyph glyph-name="M" unicode="M" horiz-adv-x="1000" 
d="M0 450q0 62 23.5 117t64 95.5t95.5 64t117 23.5q58 0 109 -20.5t91 -56.5q40 36 91 56.5t109 20.5q62 0 117 -23.5t95.5 -64t64 -95.5t23.5 -117v-450h-200v450q0 42 -29 71t-71 29t-71 -29t-29 -71v-450h-200v450q0 42 -29 71t-71 29t-71 -29t-29 -71v-450h-200v450z
" />
    <glyph glyph-name="N" unicode="N" horiz-adv-x="650" 
d="M0 425q0 67 25.5 126.5t69.5 103.5t103 69.5t127 25.5q67 0 126.5 -25.5t103.5 -69.5t69.5 -103.5t25.5 -126.5v-425h-200v425q0 26 -10 48.5t-27 39.5t-39.5 27t-48.5 10t-48.5 -10t-39.5 -27t-27 -39.5t-10 -48.5v-425h-200v425z" />
    <glyph glyph-name="O" unicode="O" horiz-adv-x="730" 
d="M-15 370q0 79 30 148t81.5 120.5t120.5 81.5t148 30t148 -30t120.5 -81.5t81.5 -120.5t30 -148t-30 -148t-81.5 -120.5t-120.5 -81.5t-148 -30t-148 30t-120.5 81.5t-81.5 120.5t-30 148zM185 369q0 -37 14 -69.5t38.5 -57t57 -38.5t69.5 -14t70 14t57.5 38.5t38.5 57
t14 69.5t-14 70t-38.5 57.5t-57.5 38.5t-70 14t-69.5 -14t-57 -38.5t-38.5 -57.5t-14 -70z" />
    <glyph glyph-name="P" unicode="P" horiz-adv-x="620" 
d="M0 740h350q62 0 117 -23.5t95.5 -64t64 -95.5t23.5 -117t-23.5 -117t-64 -95.5t-95.5 -64t-117 -23.5h-150v-140h-200v740zM350 340q42 0 71 29t29 71t-29 71t-71 29h-150v-200h150z" />
    <glyph glyph-name="Q" unicode="Q" horiz-adv-x="730" 
d="M365 -10q-79 0 -148 30t-120.5 81.5t-81.5 120.5t-30 148t30 148t81.5 120.5t120.5 81.5t148 30t148 -30t120.5 -81.5t81.5 -120.5t30 -148t-30 -148t-81 -121l102 -101h-283q-21 -5 -43 -7.5t-45 -2.5zM185 369q0 -37 14 -69.5t38.5 -57t57 -38.5t69.5 -14t70 14
t57.5 38.5t38.5 57t14 69.5t-14 70t-38.5 57.5t-57.5 38.5t-70 14t-69.5 -14t-57 -38.5t-38.5 -57.5t-14 -70z" />
    <glyph glyph-name="R" unicode="R" horiz-adv-x="615" 
d="M0 740h325q62 0 117 -23.5t95.5 -64t64 -95.5t23.5 -117q0 -46 -13 -87t-35.5 -76t-54 -62t-67.5 -45l170 -170h-281l-144 144v-144h-200v740zM325 340q42 0 71 29t29 71t-29 71t-71 29h-125v-200h125z" />
    <glyph glyph-name="S" unicode="S" horiz-adv-x="540" 
d="M0 200h325q14 0 24.5 10.5t10.5 24.5t-10.5 24.5t-24.5 10.5h-110q-49 0 -91.5 18.5t-74.5 50.5t-50.5 74.5t-18.5 91.5t18.5 91.5t50.5 74.5t74.5 50.5t91.5 18.5h325v-200h-325q-14 0 -24.5 -10.5t-10.5 -24.5t10.5 -24.5t24.5 -10.5h110q49 0 91.5 -18.5t74.5 -50.5
t50.5 -74.5t18.5 -91.5t-18.5 -91.5t-50.5 -74.5t-74.5 -50.5t-91.5 -18.5h-325v200z" />
    <glyph glyph-name="T" unicode="T" horiz-adv-x="500" 
d="M150 540h-150v200h500v-200h-150v-540h-200v540z" />
    <glyph glyph-name="U" unicode="U" horiz-adv-x="650" 
d="M0 740h200v-425q0 -26 10 -48.5t27 -39.5t39.5 -27t48.5 -10t48.5 10t39.5 27t27 39.5t10 48.5v425h200v-425q0 -68 -25.5 -127t-69.5 -103t-103.5 -69.5t-126.5 -25.5q-68 0 -127 25.5t-103 69.5t-69.5 103t-25.5 127v425z" />
    <glyph glyph-name="V" unicode="V" horiz-adv-x="684" 
d="M-50 740h225l167 -325l167 325h225l-392 -760z" />
    <glyph glyph-name="W" unicode="W" horiz-adv-x="1000" 
d="M0 740h200v-450q0 -42 29 -71t71 -29t71 29t29 71v450h200v-450q0 -42 29 -71t71 -29t71 29t29 71v450h200v-450q0 -62 -23.5 -117t-64 -95.5t-95.5 -64t-117 -23.5q-58 0 -109 20.5t-91 55.5q-40 -35 -91 -55.5t-109 -20.5q-62 0 -117 23.5t-95.5 64t-64 95.5t-23.5 117
v450z" />
    <glyph glyph-name="X" unicode="X" horiz-adv-x="706" 
d="M228 369l-278 371h249l154 -205l154 205h249l-279 -370l279 -370h-250l-154 204l-153 -204h-249z" />
    <glyph glyph-name="Y" unicode="Y" horiz-adv-x="706" 
d="M253 337l-303 403h249l154 -205l154 205h249l-303 -402v-338h-200v337z" />
    <glyph glyph-name="Z" unicode="Z" horiz-adv-x="567" 
d="M259 540h-259v200h587l-280 -540h260v-200h-587z" />
    <glyph glyph-name="bracketleft" unicode="[" horiz-adv-x="300" 
d="M0 740h300v-200h-100v-540h100v-200h-300v940z" />
    <glyph glyph-name="backslash" unicode="\" horiz-adv-x="607" 
d="M0 740h224l460 -890h-225z" />
    <glyph glyph-name="bracketright" unicode="]" horiz-adv-x="300" 
d="M0 0h100v540h-100v200h300v-940h-300v200z" />
    <glyph glyph-name="asciicircum" unicode="^" horiz-adv-x="429" 
d="M215 760l224 -435h-449z" />
    <glyph glyph-name="underscore" unicode="_" horiz-adv-x="500" 
d="M0 0h500v-200h-500v200z" />
    <glyph glyph-name="a" unicode="a" horiz-adv-x="595" 
d="M290 -10q-63 0 -119 24t-97 65t-65 97t-24 119t24 119t65 97t97 65t119 24t119 -24t97 -65t65 -97t24 -119v-295h-200v8q-25 -8 -51 -13t-54 -5zM290 190q21 0 39.5 7.5t33 21t23 32t9.5 39.5v5q0 22 -8.5 41t-22.5 33t-33 22.5t-41 8.5t-41 -8.5t-33.5 -22.5t-22.5 -33
t-8 -41t8 -41t22.5 -33.5t33.5 -22.5t41 -8z" />
    <glyph glyph-name="b" unicode="b" horiz-adv-x="595" 
d="M0 740h200v-158q25 8 51 13t54 5q63 0 119 -24t97 -65t65 -97t24 -119t-24 -119t-65 -97t-97 -65t-119 -24t-119 24t-97 65t-65 97t-24 119v445zM200 295q0 -22 8 -41t22.5 -33.5t33.5 -22.5t41 -8t41 8t33 22.5t22.5 33.5t8.5 41t-8.5 41t-22.5 33t-33 22.5t-41 8.5
q-21 0 -39.5 -8t-33 -21.5t-23 -31.5t-9.5 -39v-5z" />
    <glyph glyph-name="c" unicode="c" horiz-adv-x="380" 
d="M-15 295q0 61 23 115t63 94t94 63t115 23h100v-200h-100q-20 0 -37 -7.5t-30 -20.5t-20.5 -30.5t-7.5 -36.5q0 -20 7.5 -37t20.5 -30t30 -20.5t37 -7.5h100v-200h-100q-61 0 -115 23t-94 63t-63 94t-23 115z" />
    <glyph glyph-name="d" unicode="d" horiz-adv-x="595" 
d="M290 -10q-63 0 -119 24t-97 65t-65 97t-24 119t24 119t65 97t97 65t119 24q28 0 54 -5t51 -13v158h200v-445q0 -63 -24 -119t-65 -97t-97 -65t-119 -24zM290 190q22 0 41 8t33 22.5t22.5 33.5t8.5 41v5q-1 21 -9.5 39t-23 31.5t-33 21.5t-39.5 8q-22 0 -41 -8.5
t-33.5 -22.5t-22.5 -33t-8 -41t8 -41t22.5 -33.5t33.5 -22.5t41 -8z" />
    <glyph glyph-name="e" unicode="e" horiz-adv-x="570" 
d="M285 0q-62 0 -117 23.5t-95.5 64t-64 95.5t-23.5 117t23.5 117t64 95.5t95.5 64t117 23.5q61 0 115.5 -23.5t95.5 -62.5t65 -90t24 -107l-117 -117h102v-200h-285zM356 371q-14 14 -32.5 21.5t-38.5 7.5q-42 0 -71 -29t-29 -71t29 -71z" />
    <glyph glyph-name="f" unicode="f" horiz-adv-x="300" 
d="M0 440q0 62 23.5 117t64 95.5t95.5 64t117 23.5v-200q-42 0 -71 -29t-29 -71v-40h100v-200h-100v-200h-200v440z" />
    <glyph glyph-name="g" unicode="g" horiz-adv-x="525" 
d="M225 -160q-62 0 -117 23.5t-95.5 64t-64 95.5t-23.5 117q0 78 35.5 142.5t95.5 105.5q4 45 24 83.5t51 67t72 45t87 16.5q49 0 91.5 -18.5t74.5 -50.5t50.5 -74.5t18.5 -91.5v-225q0 -62 -23.5 -117t-64 -95.5t-95.5 -64t-117 -23.5zM225 40q19 0 36 7t30.5 19t22 28.5
t10.5 35.5h-34q-45 0 -84 15t-70 42q-11 -22 -11 -47q0 -42 29 -71t71 -29zM325 330v35q0 14 -10.5 24.5t-24.5 10.5t-24.5 -10.5t-10.5 -24.5t10.5 -24.5t24.5 -10.5h35z" />
    <glyph glyph-name="h" unicode="h" horiz-adv-x="600" 
d="M0 740h200v-157q48 17 100 17q62 0 117 -23.5t95.5 -64t64 -95.5t23.5 -117v-300h-200v300q0 42 -29 71t-71 29q-20 0 -38.5 -7.5t-32 -20.5t-21.5 -30.5t-8 -37.5v-304h-200v740z" />
    <glyph glyph-name="i" unicode="i" 
d="M0 590h200v-590h-200v590z" />
    <glyph glyph-name="j" unicode="j" horiz-adv-x="300" 
d="M0 200q42 0 71 29t29 71v290h200v-290q0 -62 -23.5 -117t-64 -95.5t-95.5 -64t-117 -23.5v200z" />
    <glyph glyph-name="k" unicode="k" horiz-adv-x="526" 
d="M0 740h200v-442l150 292h226l-154 -297l152 -293h-225l-39 76l-39 -76h-271v740z" />
    <glyph glyph-name="l" unicode="l" horiz-adv-x="300" 
d="M0 740h200v-440q0 -42 29 -71t71 -29v-200q-62 0 -117 23.5t-95.5 64t-64 95.5t-23.5 117v440z" />
    <glyph glyph-name="m" unicode="m" horiz-adv-x="1000" 
d="M0 300q0 62 23.5 117t64 95.5t95.5 64t117 23.5q58 0 109 -20.5t91 -56.5q40 36 91 56.5t109 20.5q62 0 117 -23.5t95.5 -64t64 -95.5t23.5 -117v-300h-200v300q0 42 -29 71t-71 29t-71 -29t-29 -71v-300h-200v300q0 42 -29 71t-71 29t-71 -29t-29 -71v-300h-200v300z
" />
    <glyph glyph-name="n" unicode="n" horiz-adv-x="600" 
d="M0 300q0 62 23.5 117t64 95.5t95.5 64t117 23.5t117 -23.5t95.5 -64t64 -95.5t23.5 -117v-300h-200v300q0 42 -29 71t-71 29t-71 -29t-29 -71v-300h-200v300z" />
    <glyph glyph-name="o" unicode="o" horiz-adv-x="580" 
d="M-15 295q0 63 24 119t65 97t97 65t119 24t119 -24t97 -65t65 -97t24 -119t-24 -119t-65 -97t-97 -65t-119 -24t-119 24t-97 65t-65 97t-24 119zM185 295q0 -22 8 -41t22.5 -33.5t33.5 -22.5t41 -8t41 8t33 22.5t22.5 33.5t8.5 41t-8.5 41t-22.5 33t-33 22.5t-41 8.5
t-41 -8.5t-33.5 -22.5t-22.5 -33t-8 -41z" />
    <glyph glyph-name="p" unicode="p" horiz-adv-x="595" 
d="M0 295q0 63 24 119t65 97t97 65t119 24t119 -24t97 -65t65 -97t24 -119t-24 -119t-65 -97t-97 -65t-119 -24q-28 0 -54 5t-51 13v-158h-200v445zM200 290q1 -21 9.5 -39.5t23 -32t33 -21t39.5 -7.5q22 0 41 8t33 22.5t22.5 33.5t8.5 41t-8.5 41t-22.5 33t-33 22.5
t-41 8.5t-41 -8.5t-33.5 -22.5t-22.5 -33t-8 -41v-5z" />
    <glyph glyph-name="q" unicode="q" horiz-adv-x="595" 
d="M395 8q-25 -8 -51 -13t-54 -5q-63 0 -119 24t-97 65t-65 97t-24 119t24 119t65 97t97 65t119 24t119 -24t97 -65t65 -97t24 -119v-445h-200v158zM290 190q21 0 40 8t33.5 22.5t23 33.5t8.5 41t-8.5 41t-22.5 33t-33 22.5t-41 8.5t-41 -8.5t-33.5 -22.5t-22.5 -33t-8 -41
t8 -41t22.5 -33.5t33.5 -22.5t41 -8z" />
    <glyph glyph-name="r" unicode="r" horiz-adv-x="300" 
d="M0 290q0 62 23.5 117t64 95.5t95.5 64t117 23.5v-200q-42 0 -71 -29t-29 -71v-290h-200v290z" />
    <glyph glyph-name="s" unicode="s" horiz-adv-x="390" 
d="M0 200q19 0 36.5 7.5t30.5 20.5t20.5 30t7.5 37q0 61 23 115t63 94t94 63t115 23v-200q-20 0 -37 -7.5t-30 -20.5t-20.5 -30.5t-7.5 -36.5q0 -61 -23 -115t-63 -94t-94 -63t-115 -23v200z" />
    <glyph glyph-name="t" unicode="t" horiz-adv-x="300" 
d="M0 690h200v-100h100v-200h-100v-90q0 -42 29 -71t71 -29v-200q-62 0 -117 23.5t-95.5 64t-64 95.5t-23.5 117v390z" />
    <glyph glyph-name="u" unicode="u" horiz-adv-x="600" 
d="M0 590h200v-300q0 -42 29 -71t71 -29t71 29t29 71v300h200v-300q0 -62 -23.5 -117t-64 -95.5t-95.5 -64t-117 -23.5t-117 23.5t-95.5 64t-64 95.5t-23.5 117v300z" />
    <glyph glyph-name="v" unicode="v" horiz-adv-x="470" 
d="M-75 590h225l85 -165l85 165h225l-310 -600z" />
    <glyph glyph-name="w" unicode="w" horiz-adv-x="1000" 
d="M0 590h200v-300q0 -42 29 -71t71 -29t71 29t29 71v300h200v-300q0 -42 29 -71t71 -29t71 29t29 71v300h200v-300q0 -62 -23.5 -117t-64 -95.5t-95.5 -64t-117 -23.5q-58 0 -109 20.5t-91 55.5q-40 -35 -91 -55.5t-109 -20.5q-62 0 -117 23.5t-95.5 64t-64 95.5t-23.5 117
v300z" />
    <glyph glyph-name="x" unicode="x" horiz-adv-x="543" 
d="M147 294l-222 296h249l98 -130l97 130h249l-222 -295l222 -295h-250l-97 129l-97 -129h-248z" />
    <glyph glyph-name="y" unicode="y" horiz-adv-x="470" 
d="M122 208l-197 382h225l85 -165l85 165h225l-382 -740h-226z" />
    <glyph glyph-name="z" unicode="z" horiz-adv-x="490" 
d="M181 390h-181v200h510l-202 -390h182v-200h-510z" />
    <glyph glyph-name="braceleft" unicode="{" horiz-adv-x="335" 
d="M0 395q14 0 24.5 10.5t10.5 24.5v10q0 62 23.5 117t64 95.5t95.5 64t117 23.5v-200q-42 0 -71 -29t-29 -71v-10q0 -38 -11.5 -72t-31.5 -63q20 -29 31.5 -63t11.5 -72v-10q0 -42 29 -71t71 -29v-200q-62 0 -117 23.5t-95.5 64t-64 95.5t-23.5 117v10q0 14 -10.5 24.5
t-24.5 10.5v200z" />
    <glyph glyph-name="bar" unicode="|" 
d="M0 740h200v-890h-200v890z" />
    <glyph glyph-name="braceright" unicode="}" horiz-adv-x="335" 
d="M0 50q42 0 71 29t29 71v10q0 76 42 135q-42 59 -42 135v10q0 42 -29 71t-71 29v200q62 0 117 -23.5t95.5 -64t64 -95.5t23.5 -117v-10q0 -14 10.5 -24.5t24.5 -10.5v-200q-14 0 -24.5 -10.5t-10.5 -24.5v-10q0 -62 -23.5 -117t-64 -95.5t-95.5 -64t-117 -23.5v200z" />
    <glyph glyph-name="asciitilde" unicode="~" horiz-adv-x="662" 
d="M0 274q0 47 18.5 89.5t50 75t74.5 52t92 19.5q45 0 88.5 -17t78.5 -52q9 -11 24 -11q14 0 24 10.5t11 24.5h201q0 -47 -18.5 -89.5t-50.5 -75t-75 -51.5t-92 -19q-45 0 -88 17t-78 52q-10 10 -25 10q-14 0 -24 -10t-11 -25h-200v0z" />
    <glyph glyph-name="cent" unicode="&#xa2;" horiz-adv-x="430" 
d="M200 11q-47 13 -86 40t-68 64.5t-45 83t-16 96.5t16 96.5t45 83t68 64.5t86 40v86h200v-75h30v-200h-150q-20 0 -37 -7.5t-30 -20.5t-20.5 -30.5t-7.5 -36.5q0 -20 7.5 -37t20.5 -30t30 -20.5t37 -7.5h150v-200h-30v-75h-200v86z" />
    <glyph glyph-name="sterling" unicode="&#xa3;" horiz-adv-x="600" 
d="M100 270h-100v200h100v35q0 49 18.5 91.5t50.5 74.5t74.5 50.5t91.5 18.5h200v-200h-200q-14 0 -24.5 -10.5t-10.5 -24.5v-305h300v-200h-500v270z" />
    <glyph glyph-name="yen" unicode="&#xa5;" horiz-adv-x="706" 
d="M50 320h203v17l-303 403h249l154 -205l154 205h249l-303 -402v-18h204v-200h-204v-120h-200v120h-203v200z" />
    <glyph glyph-name="section" unicode="&#xa7;" horiz-adv-x="540" 
d="M0 50h325q14 0 24.5 10.5t10.5 24.5t-10.5 24.5t-24.5 10.5h-110q-49 0 -91.5 18.5t-74.5 50.5t-50.5 74.5t-18.5 91.5q0 40 12 75q-12 36 -12 75q0 49 18.5 91.5t50.5 74.5t74.5 50.5t91.5 18.5h325v-200h-325q-14 0 -24.5 -10.5t-10.5 -24.5t10.5 -24.5t24.5 -10.5h110
q49 0 91.5 -18.5t74.5 -50.5t50.5 -74.5t18.5 -91.5q0 -41 -12 -75q12 -36 12 -75q0 -49 -18.5 -91.5t-50.5 -74.5t-74.5 -50.5t-91.5 -18.5h-325v200z" />
    <glyph glyph-name="copyright" unicode="&#xa9;" horiz-adv-x="880" 
d="M-15 295q0 94 36 177t97.5 144.5t144.5 97.5t177 36t177 -36t144.5 -97.5t97.5 -144.5t36 -177t-36 -177t-97.5 -144.5t-144.5 -97.5t-177 -36t-177 36t-144.5 97.5t-97.5 144.5t-36 177zM590 0v200h-150q-20 0 -37 7.5t-30 20.5t-20.5 30t-7.5 37q0 19 7.5 36.5
t20.5 30.5t30 20.5t37 7.5h150v200h-150q-61 0 -115 -23t-94 -63t-63 -94t-23 -115t23 -115t63 -94t94 -63t115 -23h150z" />
    <glyph glyph-name="guillemotleft" unicode="&#xab;" horiz-adv-x="298" 
d="M0 346l298 153v-225l-80 -40l80 -41v-225l-298 154v224z" />
    <glyph glyph-name="registered" unicode="&#xae;" horiz-adv-x="880" 
d="M-15 295q0 94 36 177t97.5 144.5t144.5 97.5t177 36t177 -36t144.5 -97.5t97.5 -144.5t36 -177t-36 -177t-97.5 -144.5t-144.5 -97.5t-177 -36t-177 36t-144.5 97.5t-97.5 144.5t-36 177zM515 0v290q0 42 29 71t71 29v200q-62 0 -117 -23.5t-95.5 -64t-64 -95.5
t-23.5 -117v-290h200z" />
    <glyph glyph-name="degree" unicode="&#xb0;" horiz-adv-x="330" 
d="M-10 575q0 36 13.5 68t37.5 56t56 37.5t68 13.5t68 -13.5t56 -37.5t37.5 -56t13.5 -68t-13.5 -68t-37.5 -56t-56 -37.5t-68 -13.5t-68 13.5t-56 37.5t-37.5 56t-13.5 68z" />
    <glyph glyph-name="paragraph" unicode="&#xb6;" horiz-adv-x="620" 
d="M320 140h-50q-62 0 -117 23.5t-95.5 64t-64 95.5t-23.5 117t23.5 117t64 95.5t95.5 64t117 23.5h350v-200h-100v-690h-100v690h-50v-690h-50v290z" />
    <glyph glyph-name="periodcentered" unicode="&#xb7;" 
d="M0 400h200v-200h-200v200z" />
    <glyph glyph-name="guillemotright" unicode="&#xbb;" horiz-adv-x="298" 
d="M0 193l79 41l-79 40v225l298 -153v-224l-298 -154v225z" />
    <glyph glyph-name="florin" unicode="&#x192;" horiz-adv-x="395" 
d="M0 50q19 0 36.5 7.5t30.5 20.5t20.5 30t7.5 37v295q0 62 23.5 117t64 95.5t95.5 64t117 23.5v-200q-42 0 -71 -29t-29 -71v-40h100v-200h-100v-55q0 -61 -23 -115t-63 -94t-94 -63t-115 -23v200z" />
    <glyph glyph-name="endash" unicode="&#x2013;" horiz-adv-x="500" 
d="M0 400h500v-200h-500v200z" />
    <glyph glyph-name="emdash" unicode="&#x2014;" horiz-adv-x="900" 
d="M0 400h900v-200h-900v200z" />
    <glyph glyph-name="quoteleft" unicode="&#x2018;" 
d="M0 540q0 42 15.5 78.5t42.5 63.5t63.5 42.5t78.5 15.5v-350h-200v150z" />
    <glyph glyph-name="quoteright" unicode="&#x2019;" 
d="M0 740h200v-150q0 -42 -15.5 -78.5t-42.5 -63.5t-63.5 -42.5t-78.5 -15.5v350z" />
    <glyph glyph-name="quotesinglbase" unicode="&#x201a;" 
d="M0 200h200v-150q0 -42 -15.5 -78.5t-42.5 -63.5t-63.5 -42.5t-78.5 -15.5v350z" />
    <glyph glyph-name="quotedblleft" unicode="&#x201c;" horiz-adv-x="400" 
d="M0 540q0 42 15.5 78.5t42.5 63.5t63.5 42.5t78.5 15.5v-192q1 40 17.5 75t43.5 61t62.5 41t76.5 15v-350h-400v150z" />
    <glyph glyph-name="quotedblright" unicode="&#x201d;" horiz-adv-x="400" 
d="M0 740h400v-150q0 -42 -15.5 -78.5t-42.5 -63.5t-63.5 -42.5t-78.5 -15.5v192q-2 -40 -18 -75t-43 -61t-63 -41t-76 -15v350z" />
    <glyph glyph-name="quotedblbase" unicode="&#x201e;" horiz-adv-x="400" 
d="M0 200h400v-150q0 -42 -15.5 -78.5t-42.5 -63.5t-63.5 -42.5t-78.5 -15.5v191q-2 -40 -18 -74.5t-43 -60.5t-63 -41t-76 -15v350z" />
    <glyph glyph-name="dagger" unicode="&#x2020;" horiz-adv-x="500" 
d="M150 390h-150v200h150v150h200v-150h150v-200h-150v-540h-200v540z" />
    <glyph glyph-name="daggerdbl" unicode="&#x2021;" horiz-adv-x="500" 
d="M0 200h150v190h-150v200h150v150h200v-150h150v-200h-150v-190h150v-200h-150v-150h-200v150h-150v200z" />
    <glyph glyph-name="bullet" unicode="&#x2022;" horiz-adv-x="320" 
d="M-15 295q0 36 13.5 68t37.5 56t56 37.5t68 13.5t68 -13.5t56 -37.5t37.5 -56t13.5 -68t-13.5 -68t-37.5 -56t-56 -37.5t-68 -13.5t-68 13.5t-56 37.5t-37.5 56t-13.5 68z" />
    <glyph glyph-name="perthousand" unicode="&#x2030;" horiz-adv-x="1482" 
d="M892 -10q-48 0 -91 18.5t-75 50.5t-50.5 74.5t-18.5 91.5t18.5 91.5t50.5 74.5t74.5 50.5t91.5 18.5q57 0 105 -24.5t80 -66.5q32 42 80 66.5t105 24.5q49 0 91.5 -18.5t74.5 -50.5t50.5 -74.5t18.5 -91.5t-18.5 -91.5t-50.5 -74.5t-74.5 -50.5t-91.5 -18.5
q-57 0 -105 24t-80 66q-32 -42 -80 -66t-105 -24zM220 279q-48 0 -91 18.5t-75 50.5t-50.5 74.5t-18.5 91.5t18.5 91.5t50.5 74.5t74.5 50.5t91.5 18.5t91.5 -18.5t74.5 -50.5t50.5 -74.5t18.5 -91.5t-18.5 -91.5t-50.5 -74.5t-74.5 -50.5t-91.5 -18.5zM635 740h225
l-383 -740h-224zM1262 190q14 0 24.5 10.5t10.5 24.5t-10.5 24.5t-24.5 10.5t-24.5 -10.5t-10.5 -24.5t10.5 -24.5t24.5 -10.5zM892 190q14 0 24.5 10.5t10.5 24.5t-10.5 24.5t-24.5 10.5t-24.5 -10.5t-10.5 -24.5t10.5 -24.5t24.5 -10.5zM220 479q14 0 24.5 10.5t10.5 24.5
t-10.5 24.5t-24.5 10.5t-24.5 -10.5t-10.5 -24.5t10.5 -24.5t24.5 -10.5z" />
    <glyph glyph-name="guilsinglleft" unicode="&#x2039;" horiz-adv-x="298" 
d="M0 368l298 153v-225l-80 -40l80 -41v-225l-298 154v224z" />
    <glyph glyph-name="guilsinglright" unicode="&#x203a;" horiz-adv-x="298" 
d="M0 215l79 41l-79 40v225l298 -153v-224l-298 -154v225z" />
    <glyph glyph-name="fraction" unicode="&#x2044;" horiz-adv-x="607" 
d="M382 740h225l-383 -740h-224z" />
    <glyph glyph-name="Euro" unicode="&#x20ac;" horiz-adv-x="710" 
d="M0 470h101q4 59 29.5 110t66.5 89t94.5 59.5t113.5 21.5q63 0 119 -24t97 -65t65 -97t24 -119h-200q0 22 -8.5 41t-22.5 33t-33 22.5t-41 8.5t-41 -8.5t-33.5 -22.5t-22.5 -33t-8 -41v-150q0 -22 8 -41t22.5 -33.5t33.5 -22.5t41 -8t41 8t33 22.5t22.5 33.5t8.5 41h200
q0 -63 -24 -119t-65 -97t-97 -65t-119 -24q-60 0 -113.5 21.5t-94.5 59.5t-66.5 89t-29.5 110h-101v200z" />
    <glyph glyph-name="trademark" unicode="&#x2122;" horiz-adv-x="1141" 
d="M401 515q0 49 18.5 91.5t50.5 74.5t74.5 50.5t91.5 18.5q38 0 72 -11.5t63 -31.5q29 20 63 31.5t72 11.5q49 0 91.5 -18.5t74.5 -50.5t50.5 -74.5t18.5 -91.5v-145h-200v145q0 14 -10.5 24.5t-24.5 10.5t-24.5 -10t-10.5 -22v-148h-200v145q0 14 -10.5 24.5t-24.5 10.5
t-24.5 -10.5t-10.5 -24.5v-145h-200v145zM100 540h-100v200h400v-200h-100v-170h-200v170z" />
    </font>
</defs>
</svg>
