<svg xmlns="http://www.w3.org/2000/svg" xmlns:xlink="http://www.w3.org/1999/xlink" viewBox="0,0,256,256" width="48px" height="48px"><defs><linearGradient x1="24" y1="11.848" x2="24" y2="61.644" gradientUnits="userSpaceOnUse" id="color-1"><stop offset="0" stop-color="#ffffff"></stop><stop offset="1" stop-color="#ffffff"></stop></linearGradient><linearGradient x1="16.364" y1="11.848" x2="16.364" y2="61.644" gradientUnits="userSpaceOnUse" id="color-2"><stop offset="0" stop-color="#ffffff"></stop><stop offset="1" stop-color="#ffffff"></stop></linearGradient><linearGradient x1="31.636" y1="11.848" x2="31.636" y2="61.644" gradientUnits="userSpaceOnUse" id="color-3"><stop offset="0" stop-color="#ffffff"></stop><stop offset="1" stop-color="#ffffff"></stop></linearGradient><linearGradient x1="26.545" y1="11.848" x2="26.545" y2="61.644" gradientUnits="userSpaceOnUse" id="color-4"><stop offset="0" stop-color="#ffffff"></stop><stop offset="1" stop-color="#ffffff"></stop></linearGradient><linearGradient x1="21.136" y1="11.848" x2="21.136" y2="61.644" gradientUnits="userSpaceOnUse" id="color-5"><stop offset="0" stop-color="#ffffff"></stop><stop offset="1" stop-color="#ffffff"></stop></linearGradient></defs><g fill="none" fill-rule="nonzero" stroke="none" stroke-width="none" stroke-linecap="butt" stroke-linejoin="none" stroke-miterlimit="10" stroke-dasharray="" stroke-dashoffset="0" font-family="none" font-weight="none" font-size="none" text-anchor="none" style="mix-blend-mode: normal"><path transform="scale(5.33333,5.33333)" d="M35,42h-22c-3.866,0 -7,-3.134 -7,-7v-22c0,-3.866 3.134,-7 7,-7h22c3.866,0 7,3.134 7,7v22c0,3.866 -3.134,7 -7,7z" id="strokeMainSVG" fill="#000000" stroke="#000000" stroke-width="4" stroke-linejoin="round"></path><g transform="scale(5.33333,5.33333)" stroke="none" stroke-width="1" stroke-linejoin="miter"><path d="M35,42h-22c-3.866,0 -7,-3.134 -7,-7v-22c0,-3.866 3.134,-7 7,-7h22c3.866,0 7,3.134 7,7v22c0,3.866 -3.134,7 -7,7z" fill="url(#color-1)"></path><path d="M24,12c7.732,0 14,5.033 14,11.242c0,6.209 -6.268,11.242 -14,11.242c-1.012,0 -1.997,-0.091 -2.949,-0.255l-5.615,3.713c-0.059,0.04 -0.122,0.058 -0.184,0.058c-0.206,0 -0.389,-0.198 -0.32,-0.427l1.479,-4.892c-3.854,-2.002 -6.411,-5.478 -6.411,-9.439c0,-6.209 6.268,-11.242 14,-11.242M24,11c-8.271,0 -15,5.492 -15,12.242c0,3.964 2.31,7.622 6.221,9.922l-1.246,4.119c-0.123,0.406 -0.049,0.835 0.203,1.174c0.252,0.34 0.653,0.543 1.074,0.543c0.261,0 0.516,-0.077 0.736,-0.223l5.289,-3.498c0.906,0.136 1.82,0.205 2.723,0.205c8.271,0 15,-5.492 15,-12.242c0,-6.75 -6.729,-12.242 -15,-12.242z" fill-opacity="0" fill="#000000" opacity="0.05"></path><path d="M24,12c7.732,0 14,5.033 14,11.242c0,6.209 -6.268,11.242 -14,11.242c-1.012,0 -1.997,-0.091 -2.949,-0.255l-5.615,3.713c-0.059,0.04 -0.122,0.058 -0.184,0.058c-0.206,0 -0.389,-0.198 -0.32,-0.427l1.479,-4.892c-3.854,-2.002 -6.411,-5.478 -6.411,-9.439c0,-6.209 6.268,-11.242 14,-11.242M24,11.5c-7.995,0 -14.5,5.268 -14.5,11.742c0,3.896 2.352,7.49 6.315,9.686l-1.361,4.5c-0.077,0.254 -0.031,0.521 0.125,0.732c0.158,0.213 0.409,0.34 0.673,0.34c0.163,0 0.322,-0.048 0.46,-0.14l5.451,-3.605c0.944,0.152 1.897,0.229 2.837,0.229c7.995,0 14.5,-5.268 14.5,-11.742c0,-6.474 -6.505,-11.742 -14.5,-11.742z" fill-opacity="0" fill="#000000" opacity="0.07"></path><path d="M24,12c-7.732,0 -14,5.033 -14,11.242c0,3.961 2.557,7.436 6.412,9.439l-1.479,4.892c-0.09,0.297 0.244,0.542 0.504,0.37l5.615,-3.713c0.951,0.164 1.937,0.255 2.949,0.255c7.732,0 14,-5.033 14,-11.242c0,-6.209 -6.269,-11.243 -14.001,-11.243z" fill="#000000"></path><path d="M18.91,20.636c0,-0.351 -0.285,-0.636 -0.636,-0.636h-3.818c-0.351,0 -0.636,0.285 -0.636,0.636c0,0.351 0.285,0.636 0.636,0.636h1.273v5.091c0,0.351 0.285,0.636 0.636,0.636c0.351,0 0.636,-0.285 0.636,-0.636v-5.091h1.273c0.351,0.001 0.636,-0.284 0.636,-0.636z" fill="url(#color-2)"></path><path d="M34.045,25.97l-2.359,-3.002c-0.008,-0.011 -0.021,-0.015 -0.03,-0.025l1.857,-1.857c0.249,-0.248 0.249,-0.651 0,-0.9c-0.248,-0.249 -0.651,-0.249 -0.9,0l-2.249,2.249v-1.799c0,-0.351 -0.285,-0.636 -0.636,-0.636c-0.351,0 -0.636,0.285 -0.636,0.636v5.727c0,0.351 0.285,0.636 0.636,0.636c0.351,0 0.636,-0.285 0.636,-0.636v-2.135c0.007,-0.006 0.016,-0.008 0.022,-0.015l0.369,-0.369l2.29,2.913c0.217,0.276 0.617,0.324 0.893,0.107c0.276,-0.217 0.324,-0.618 0.107,-0.894z" fill="url(#color-3)"></path><path d="M27.818,25.727h-1.909v-5.09c0,-0.351 -0.285,-0.636 -0.636,-0.636c-0.351,0 -0.636,0.285 -0.636,0.636v5.727c0,0.351 0.285,0.636 0.636,0.636h2.545c0.351,0 0.636,-0.285 0.636,-0.636c0,-0.352 -0.285,-0.637 -0.636,-0.637z" fill="url(#color-4)"></path><path d="M21.908,20.409c-0.092,-0.241 -0.316,-0.389 -0.559,-0.4c-0.071,-0.003 -0.344,-0.002 -0.408,-0.001c-0.249,0.004 -0.482,0.153 -0.576,0.401l-2.05,5.727c-0.126,0.328 0.038,0.696 0.367,0.822c0.328,0.126 0.696,-0.038 0.822,-0.367l0.309,-0.864h2.647l0.309,0.864c0.126,0.328 0.494,0.492 0.822,0.367c0.328,-0.125 0.492,-0.494 0.366,-0.822zM20.269,24.454l0.868,-2.426l0.868,2.426z" fill="url(#color-5)"></path></g></g></svg>